Coordinates
version=1
nRows=13
nColumns=38
inDegrees=no

Units are S.I. units (second, meters, Newtons, ...)
If the header above contains a line with 'inDegrees', this indicates whether rotational values are in degrees (yes) or radians (no).

endheader
time	pelvis_tilt	pelvis_list	pelvis_rotation	pelvis_tx	pelvis_ty	pelvis_tz	hip_flexion_r	hip_adduction_r	hip_rotation_r	knee_angle_r	ankle_angle_r	subtalar_angle_r	mtp_angle_r	hip_flexion_l	hip_adduction_l	hip_rotation_l	knee_angle_l	ankle_angle_l	subtalar_angle_l	mtp_angle_l	lumbar_extension	lumbar_bending	lumbar_rotation	arm_flex_r	arm_add_r	arm_rot_r	elbow_flex_r	pro_sup_r	wrist_flex_r	wrist_dev_r	arm_flex_l	arm_add_l	arm_rot_l	elbow_flex_l	pro_sup_l	wrist_flex_l	wrist_dev_l
40	-1.84179	1.44896	0.243918	0.732546	2.08848	1.02542	0.0137513	0.0329263	-0.183258	0.0229423	-0.226917	0	0	0.00574118	-0.22671	-0.261819	0.137072	-0.253292	0	0	-0.149461	0.0973099	-0.0186148	0.0335185	-0.263808	0.289542	0.669281	1.5708	0	0	-0.0807351	-0.257191	0.205543	0.534058	1.34896	0	0
40.01	-2.01299	1.44501	0.412184	0.73275	2.08627	1.02457	0.0346799	0.0291932	-0.177946	0.0227762	-0.230528	0	0	0.0236616	-0.221077	-0.249269	0.129813	-0.259193	0	0	-0.116238	0.0885569	-0.0205971	0.0679092	-0.208694	0.234456	0.551346	1.5708	0	0	-0.0670079	-0.309351	0.397724	0.552859	1.19406	0	0
40.02	-1.71173	1.46886	0.0904121	0.731072	2.08412	1.02989	-0.0101834	0.0151764	-0.167651	0.0190162	-0.237186	0	0	-0.0137768	-0.210297	-0.282573	0.168675	-0.253468	0	0	-0.165718	0.0709997	-0.0052579	0.0800104	-0.200996	0.233773	0.536974	1.5708	0	0	-0.055913	-0.320789	0.402189	0.569964	1.19553	0	0
40.03	-1.94059	1.37738	0.350425	0.739478	2.08324	1.01921	0.0458597	0.0951297	-0.195048	0.0201874	-0.24185	0	0	0.0514523	-0.29577	-0.242332	0.162863	-0.212521	0	0	-0.0909941	0.183371	-0.0395055	0.0525562	-0.245622	0.247922	0.576012	1.5708	0	0	-0.0709287	-0.29082	0.385925	0.583343	1.21578	0	0
40.04	-1.94738	1.37761	0.352028	0.740238	2.08143	1.01912	0.0450775	0.093465	-0.193272	0.0199336	-0.242591	0	0	0.0463997	-0.29349	-0.246587	0.158321	-0.21186	0	0	-0.0881992	0.186163	-0.0399388	0.0523827	-0.245787	0.249348	0.568157	1.5708	0	0	-0.0670781	-0.293761	0.389228	0.592977	1.2193	0	0
40.05	-1.8303	1.39619	0.208471	0.737929	2.07785	1.02293	0.0115175	0.0831177	-0.17469	0.0159738	-0.245839	0	0	0.0232058	-0.288218	-0.29343	0.212297	-0.203679	0	0	-0.118751	0.171262	-0.017489	0.0579036	-0.238045	0.249708	0.550883	1.5708	0	0	-0.0612806	-0.302199	0.393326	0.603047	1.22237	0	0
40.06	-1.96717	1.37815	0.360519	0.741817	2.07771	1.01888	0.044447	0.0894945	-0.187395	0.019171	-0.243454	0	0	0.0329999	-0.286397	-0.249425	0.137966	-0.217959	0	0	-0.0808818	0.190971	-0.0404894	0.0530464	-0.24531	0.25041	0.549922	1.5708	0	0	-0.0607714	-0.297902	0.390599	0.610995	1.22937	0	0
40.07	-1.96191	1.38	0.344591	0.742346	2.07538	1.01905	0.0400175	0.0871614	-0.180919	0.0186784	-0.244289	0	0	0.0219683	-0.28349	-0.266806	0.13308	-0.217646	0	0	-0.0809074	0.192862	-0.0349789	0.0519418	-0.245717	0.247215	0.542359	1.5708	0	0	-0.0581651	-0.298728	0.3898	0.619024	1.23257	0	0
40.08	-1.73734	1.40872	0.0730037	0.738381	2.07005	1.02515	-0.0162954	0.0685662	-0.147809	0.0129765	-0.248758	0	0	-0.0426519	-0.265404	-0.353165	0.159666	-0.220986	0	0	-0.133313	0.167224	0.00990624	0.0560607	-0.237395	0.241742	0.525284	1.5708	0	0	-0.0527263	-0.305846	0.39156	0.626907	1.23158	0	0
40.09	-1.81869	1.34739	0.0581153	0.727357	2.05835	1.01929	-0.0155032	0.138562	-0.0443868	0.00166782	-0.249504	0	0	-0.168087	-0.279787	-0.20905	0	-0.251903	0	0	-0.084072	0.231371	0.0995407	-0.00155145	-0.259139	0.236694	0.552234	1.5708	0	0	-0.105466	-0.299643	0.373845	0.664305	1.23993	0	0
40.1	-1.75876	1.35383	-0.0181095	0.727025	2.05489	1.02085	-0.0342997	0.130432	-0.0491072	0.00189338	-0.249841	0	0	-0.189973	-0.26866	-0.261417	0	-0.249456	0	0	-0.097954	0.22609	0.109644	0.000962982	-0.255368	0.232679	0.537362	1.5708	0	0	-0.108213	-0.304891	0.373678	0.680771	1.24114	0	0
40.11	-1.51053	1.42201	-0.213909	0.736733	2.05982	1.02932	-0.0652267	0.0465351	-0.112616	0.00697862	-0.251198	0	0	-0.145591	-0.225871	-0.445546	0.0758217	-0.256434	0	0	-0.16345	0.15227	0.0560553	0.0512137	-0.233524	0.225509	0.495151	1.5708	0	0	-0.0561176	-0.314615	0.38897	0.666245	1.24311	0	0
40.12	-1.52205	1.42301	-0.203764	0.738067	2.05823	1.02911	-0.0643725	0.0440642	-0.112894	0.00735055	-0.251024	0	0	-0.14671	-0.222383	-0.442623	0.0721557	-0.258973	0	0	-0.160625	0.154579	0.052941	0.0522281	-0.233105	0.22166	0.486221	1.5708	0	0	-0.0549066	-0.316924	0.387134	0.678153	1.24706	0	0
